<?xml version="1.0" encoding="UTF-8"?>
<svg width="12px" height="12px" viewBox="0 0 12 12" version="1.1" xmlns="http://www.w3.org/2000/svg" xmlns:xlink="http://www.w3.org/1999/xlink">
    <!-- Generator: Sketch 52.6 (67491) - http://www.bohemiancoding.com/sketch -->
    <title>Shape</title>
    <desc>Created with Sketch.</desc>
    <g id="Plugin-WP-iLoveIMG" stroke="none" stroke-width="1" fill="none" fill-rule="evenodd">
        <g id="Home-Register" transform="translate(-766.000000, -172.000000)" fill="#AAAEB2">
            <path d="M772,172 C768.688,172 766,174.688 766,178 C766,181.312 768.688,184 772,184 C775.312,184 778,181.312 778,178 C778,174.688 775.312,172 772,172 L772,172 Z M772,173.8 C772.996,173.8 773.8,174.604 773.8,175.6 C773.8,176.596 772.996,177.4 772,177.4 C771.004,177.4 770.2,176.596 770.2,175.6 C770.2,174.604 771.004,173.8 772,173.8 L772,173.8 Z M772,182.2 C770.5,182.2 769.174,181.468571 768.4,180.36 C768.418,179.222857 770.8,178.6 772,178.6 C773.194,178.6 775.582,179.222857 775.6,180.36 C774.826,181.468571 773.5,182.2 772,182.2 L772,182.2 Z" id="Shape"></path>
        </g>
    </g>
</svg>