<?xml version="1.0" encoding="UTF-8"?>
<svg width="13px" height="13px" viewBox="0 0 13 13" version="1.1" xmlns="http://www.w3.org/2000/svg" xmlns:xlink="http://www.w3.org/1999/xlink">
    <!-- Generator: Sketch 52.6 (67491) - http://www.bohemiancoding.com/sketch -->
    <title>Fill 124</title>
    <desc>Created with Sketch.</desc>
    <g id="Plugin-WP-iLoveIMG" stroke="none" stroke-width="1" fill="none" fill-rule="evenodd" opacity="0.5">
        <g id="Home-Login" transform="translate(-973.000000, -211.000000)" fill="#555D66">
            <g id="Group-2" transform="translate(965.000000, 202.000000)">
                <path d="M17.3769531,13.4444444 L17.3769531,12.1746032 C17.3769531,10.4222222 15.9769531,9 14.2519531,9 C12.5269531,9 11.1269531,10.4222222 11.1269531,12.1746032 L11.1269531,13.4444444 L9.50195313,13.4444444 C8.81445313,13.4444444 8.25195312,14.015873 8.25195312,14.7142857 L8.25195312,20.0634921 C8.25195312,20.7619048 8.81445313,21.3333333 9.50195313,21.3333333 L19.0019531,21.3333333 C19.6894531,21.3333333 20.2519531,20.7619048 20.2519531,20.0634921 L20.2519531,14.7142857 C20.2519531,14.015873 19.6894531,13.4444444 19.0019531,13.4444444 L17.3769531,13.4444444 Z M14.2519531,18.5396825 C13.5644531,18.5396825 13.0019531,17.968254 13.0019531,17.2698413 C13.0019531,16.5714286 13.5644531,16 14.2519531,16 C14.9394531,16 15.5019531,16.5714286 15.5019531,17.2698413 C15.5019531,17.968254 14.9394531,18.5396825 14.2519531,18.5396825 L14.2519531,18.5396825 Z M16.1894531,13.4444444 L12.3144531,13.4444444 L12.3144531,12.1746032 C12.3144531,11.0888889 13.1832031,10.2063492 14.2519531,10.2063492 C15.3207031,10.2063492 16.1894531,11.0888889 16.1894531,12.1746032 L16.1894531,13.4444444 L16.1894531,13.4444444 Z" id="Fill-124"></path>
            </g>
        </g>
    </g>
</svg>