<?xml version="1.0" encoding="UTF-8"?>
<svg width="656px" height="237px" viewBox="0 0 656 237" version="1.1" xmlns="http://www.w3.org/2000/svg" xmlns:xlink="http://www.w3.org/1999/xlink">
    <!-- Generator: Sketch 52.6 (67491) - http://www.bohemiancoding.com/sketch -->
    <title>Group 5</title>
    <desc>Created with Sketch.</desc>
    <defs>
        <linearGradient x1="8.50945724%" y1="58.9815132%" x2="61.2006579%" y2="-28.7549178%" id="linearGradient-1">
            <stop stop-color="#ADD4FF" offset="0%"></stop>
            <stop stop-color="#75A9FF" offset="100%"></stop>
        </linearGradient>
        <polygon id="path-2" points="0 236 577 236 577 0 0 0"></polygon>
        <linearGradient x1="50%" y1="0%" x2="83.3944746%" y2="168.981513%" id="linearGradient-4">
            <stop stop-color="#ADD4FF" offset="0%"></stop>
            <stop stop-color="#75A9FF" offset="100%"></stop>
        </linearGradient>
        <linearGradient x1="0%" y1="50%" x2="100%" y2="50%" id="linearGradient-5">
            <stop stop-color="#FFFAB2" offset="0%"></stop>
            <stop stop-color="#FDF47B" offset="100%"></stop>
        </linearGradient>
        <linearGradient x1="-7.49798943%" y1="140.074871%" x2="61.1701517%" y2="0%" id="linearGradient-6">
            <stop stop-color="#9E4504" offset="0%"></stop>
            <stop stop-color="#FED08D" offset="100%"></stop>
        </linearGradient>
        <linearGradient x1="65.2319027%" y1="0%" x2="11.1600079%" y2="163.195155%" id="linearGradient-7">
            <stop stop-color="#FED08D" offset="0%"></stop>
            <stop stop-color="#7E3703" offset="100%"></stop>
        </linearGradient>
    </defs>
    <g id="Plugin-WP-iLoveIMG" stroke="none" stroke-width="1" fill="none" fill-rule="evenodd">
        <g id="Home-Register" transform="translate(-72.000000, -128.000000)">
            <g id="Group-5" transform="translate(72.000000, 128.000000)">
                <mask id="mask-3" fill="white">
                    <use xlink:href="#path-2"></use>
                </mask>
                <use id="Mask" fill="url(#linearGradient-1)" xlink:href="#path-2"></use>
                <polygon id="Fill-1-Copy" fill="url(#linearGradient-4)" points="655.125328 236.126147 655.125328 0.126147368 364.125328 0.126147368 452.535688 236.126147"></polygon>
                <path d="M655.5,199.165039 C655.5,166.523852 655.5,147.894113 655.5,143.275824 C655.5,140.5896 649,133.007628 638.124636,133.007628 C630.950816,133.007628 624.228756,134.930665 618.425843,138.275824 C618.600742,136.443862 618.697494,134.588759 618.697494,132.71126 C618.697494,100.837821 592.937534,75 561.161062,75 C538.90875,75 519.621527,87.6789041 510.049736,106.220234 C504.005686,95.7002668 492.689374,88.6128012 479.714875,88.6128012 C462.607558,88.6128012 448.376021,100.92815 445.329064,117.200057 C435.54665,105.867129 421.110445,98.6878418 404.99298,98.6878418 C375.529636,98.6878418 351.645184,122.645177 351.645184,152.198431 C351.645184,153.739996 351.724819,155.262151 351.852085,156.770869 C345.629416,152.747123 338.224879,150.403049 330.271086,150.403049 C313.4704,150.403049 299.105643,160.823729 293.22384,175.569001 C279.519976,147.014592 250.401218,127.307198 216.693419,127.307198 C187.498004,127.307198 161.746975,142.093529 146.471257,164.605601 C138.121523,151.983433 123.832679,143.65749 107.599855,143.65749 C93.4963295,143.65749 80.8656731,149.947671 72.3164804,159.873408 C64.6581542,141.456747 46.5416355,128.510589 25.4056971,128.510589 C16.1472347,128.510589 7.47598511,131.006207 0,135.345731 L0,191.671448 L0,223.606849 L0,236.391107 L172.460938,236.391107 L259.363962,236.391107 L638.124636,236.391107 L655.5,236.391107 L655.5,199.165039 Z" id="Fill-7" fill="#FFFFFF"></path>
                <path d="M466.460354,235.872979 C466.52482,235.532608 466.599665,235.19717 466.657028,234.854058 C471.363551,206.681617 452.415086,180.01536 424.334383,175.293462 C404.669696,171.986763 385.752918,180.327778 374.556694,195.293703 C370.769077,185.097362 361.814938,177.15098 350.34938,175.222757 C335.231145,172.68066 320.83678,181.451387 315.740733,195.380851 C308.770272,183.910721 297.072529,175.419525 282.829494,173.02432 C256.792564,168.646081 232.148196,186.272492 227.784214,212.394484 C227.5564,213.757065 227.402339,215.114714 227.291983,216.466881 C222.387147,211.986148 216.190271,208.813734 209.160808,207.631478 C194.314093,205.134873 180.080891,212.211418 172.706156,224.370512 C164.812419,197.095314 141.990019,175.349368 112.202075,170.340265 C86.4017001,166.002037 61.4623211,175.244681 44.6384837,192.872736 C39.1245044,180.475218 27.7266892,170.993054 13.3809466,168.580857 C8.82684659,167.814611 4.3230078,167.823928 1.70530257e-13,168.505767 L1.70530257e-13,235.872979 L466.460354,235.872979 Z" id="Fill-10" fill="#EAEFFF"></path>
                <g id="Group-4" transform="translate(38.000000, 16.000000)">
                    <g id="Group" transform="translate(166.469135, 0.000000)">
                        <ellipse id="Oval" fill="url(#linearGradient-5)" cx="119.928262" cy="35.4407295" rx="35.708977" ry="35.4407295"></ellipse>
                        <g id="Group-3" transform="translate(0.000000, 20.729483)" fill="#4D90FE">
                            <path d="M10.8001311,100.18105 C10.8001311,100.18105 8.75258929,100.385881 8.55585304,102.028195 C7.58924701,102.718305 7.33608829,103.376846 7.1935473,103.72337 C7.87655617,103.223407 9.4652942,102.343884 10.5336092,102.571473 C11.6004393,102.797595 12.4987445,102.855593 13.873671,102.498058 C13.9583047,103.720433 14.8528979,103.600031 15.9479393,103.863594 C17.0414958,104.127157 18.5641602,104.284267 18.8930438,104.973643 C19.6153999,104.961162 19.6302479,103.599297 19.4557837,103.361429 C19.8425746,103.584614 20.0890517,102.569271 19.4869646,102.125105 C19.9435411,102.174293 19.5233422,101.318997 19.180353,101.101686 C19.8225298,101.433526 19.2917131,100.432867 19.0244488,100.279428 C19.3318028,100.223632 19.1224457,99.5907861 18.8447877,99.4667131 C19.1372937,99.2009474 20.8010142,99.0350274 22.4691892,99.7067833 C23.9324614,100.06799 22.0140974,98.6363788 22.0140974,98.6363788 C22.0140974,98.6363788 24.2620874,98.0240898 22.3942067,97.6518709 C23.1314108,97.1643891 22.1900464,96.4052682 20.9197984,96.7554622 C21.4483879,96.2826635 18.6740355,96.7760187 16.8165484,97.5395445 C16.4639079,96.4544569 15.5463003,96.6923245 15.5463003,96.6923245 C16.1075555,96.3869142 15.1082838,95.6050344 14.7162961,95.5998953 C14.7801426,95.2372205 14.1981002,94.8084714 13.3324607,95.1689437 C13.6739652,94.7747 12.9130042,94.696145 12.2247985,94.8738116 C12.5098805,94.4325817 11.6182569,94.0478822 10.7741471,94.544174 C10.8528416,94.0442114 10.1935895,94.0309965 9.47346061,94.2233463 C8.78896694,93.8959112 5.0687958,92.4253898 3.12073572,91.4386794 C1.17193323,90.4519691 0.295157718,90.0981043 0.132571911,90.7419621 C-0.0307562969,91.38582 1.35159426,94.1176273 3.39171206,96.0022146 C5.43108746,97.8853336 6.68722986,97.0755558 8.56698905,97.730426 C10.4474906,98.3860304 10.8001311,100.18105 10.8001311,100.18105" id="Fill-7" transform="translate(11.627807, 97.695245) scale(-1, 1) translate(-11.627807, -97.695245) "></path>
                            <path d="M180.026544,23.3908342 C180.026544,23.3908342 177.373203,22.3674159 176.08291,24.2674206 C174.451855,24.5155665 173.72059,25.1675001 173.322663,25.5066818 C174.484521,25.3158003 177.003487,25.2232962 178.173511,26.1696278 C179.343535,27.1137568 180.413335,27.7443998 182.335411,28.1621365 C181.659826,29.7222254 182.242611,31.0393075 183.48539,31.9709558 C185.753425,33.6720033 186.636882,37.8009161 186.604216,38.8566374 C189.151394,38.399256 188.377812,33.8327842 188.314708,33.4297307 C188.648046,33.9451106 189.94799,32.1258635 189.489929,31.2037592 C190.02223,31.5488141 190.049699,30.2324662 189.764617,29.7515918 C190.344432,30.5606355 190.328099,28.9961417 190.095728,28.6415427 C190.51073,28.7634131 190.656241,27.8545237 190.394173,27.5270886 C190.924247,27.3824592 193.079437,28.214996 194.70678,30.0826977 C196.279928,31.4408927 194.827049,28.4814959 194.827049,28.4814959 C194.827049,28.4814959 197.989677,29.1275562 195.92506,27.5035955 C197.145567,27.3633711 196.467755,25.8414585 194.680796,25.480252 C195.630327,25.2277012 191.89902,24.1051714 189.123925,23.8885943 C189.380796,22.3299738 188.098669,22.0517274 188.098669,22.0517274 C188.984354,22.0245635 188.251604,20.4380449 187.77424,20.1884307 C188.083821,19.7809722 187.638381,18.8889684 186.342891,18.7935277 C187.014764,18.5211545 186.127595,17.9492443 185.166186,17.740743 C185.797969,17.3736633 184.94495,16.3443718 183.589326,16.4288001 C184.004328,15.8612948 183.198823,15.434014 182.191385,15.2218419 C181.55589,14.3929759 177.910701,10.2603923 176.140075,7.82959037 C174.367964,5.3987884 173.511976,4.41574889 172.90098,5.1073271 C172.290726,5.79817115 172.252121,10.0283979 173.563944,13.6221085 C174.876509,17.2150849 176.939641,16.9985078 178.83796,18.9785359 C180.736279,20.9585639 180.026544,23.3908342 180.026544,23.3908342" id="Fill-9" transform="translate(184.558441, 21.873860) scale(-1, 1) translate(-184.558441, -21.873860) "></path>
                            <path d="M90.8538582,88.828678 C90.8538582,88.828678 87.8939056,88.4359027 87.3727401,89.528332 C85.852303,89.8513622 84.9539979,90.6985822 84.9539979,90.6985822 C84.9539979,90.6985822 87.0401445,90.4173991 87.8055599,91.0825476 C88.5687481,91.747696 91.4693086,94.091133 97.5948588,92.7586336 C102.234865,91.8813131 103.943129,93.1367257 103.943129,93.1367257 C103.943129,93.1367257 104.542247,91.5722319 103.372965,91.3556549 C104.560064,91.3556549 104.112397,90.2793771 102.923813,90.3219584 C104.519975,90.136216 103.838451,89.2603638 102.217789,89.1840112 C100.594901,89.109127 98.2578228,89.1972261 98.2578228,89.1972261 C98.2578228,89.1972261 98.8383803,84.4134431 98.7418682,82.1882058 C98.8190779,81.1501043 102.13761,76.7833238 101.202927,74.5837821 C99.4954052,75.6762114 94.19392,79.5063213 92.6964973,81.8747197 C91.9370211,83.2101557 92.5465323,85.0382128 92.5465323,85.0382128 C92.5465323,85.0382128 89.9978699,83.8510769 88.070597,83.7526996 C86.1425818,83.6550563 84.4996485,83.2732934 83.3021558,84.0111237 C82.1016934,84.7489539 79.8306889,85.7129053 77.027383,86.1592743 C75.4972946,86.6129848 78.0080946,87.1452504 80.7906134,87.0013552 C83.5701625,86.8581941 86.6682016,84.5265036 90.8538582,88.828678" id="Fill-21" transform="translate(90.329862, 83.872665) scale(-1, 1) translate(-90.329862, -83.872665) "></path>
                            <path d="M39.1946613,48.3522558 C39.1946613,48.3522558 35.8412363,45.6211826 34.3683128,47.3626088 C32.9933862,46.90743 32.2962718,47.5924007 31.8827544,47.8023704 C33.9035698,48.4146593 34.9020991,48.587921 35.2547395,50.286766 C35.6066376,51.9863451 37.8093412,53.9098429 38.770008,54.3701609 C36.6868309,55.461856 35.5086406,55.8656437 35.30745,58.0644513 C35.1047745,60.2625247 35.9852621,64.3561978 35.1916354,65.6585967 C36.573986,66.7297353 38.0060774,65.0712691 38.0060774,65.0712691 C38.0060774,65.0712691 39.5747706,65.9757536 40.2948995,63.7710727 C41.0744205,64.8099083 41.6779925,63.160252 41.7462934,61.9687112 C42.4797855,62.5758611 42.8569252,61.0223797 42.9207717,60.3902684 C44.0306611,60.3616362 44.0781748,58.5996535 44.0781748,58.5996535 C44.6431419,59.5335043 45.1041729,57.1034365 45.1041729,57.1034365 C45.1041729,57.1034365 47.7493474,58.9836189 48.6097901,61.5384938 C49.4984441,62.9855221 50.548199,60.5304929 49.9357182,59.5746173 C50.851841,59.9115964 50.7479049,58.127589 49.9475966,57.2341169 C51.053774,57.713523 52.125801,55.4229455 49.9602175,54.7915684 C47.7946339,54.1609254 45.4130117,52.9165251 45.1353537,52.2220103 C44.8569534,51.5274954 45.5518406,50.63696 44.6735803,50.1135043 C45.9059659,49.0732004 45.3113027,47.869913 44.8317117,47.690044 C45.3424836,47.0682109 45.0848704,46.3325831 44.4798137,46.0939813 C45.2838339,45.6123727 43.4411947,44.2182039 43.3149866,44.1580028 C44.2073525,44.1271681 43.4256043,42.9870185 43.0915239,42.8269717 C43.5243437,42.575155 42.663901,41.8057559 42.3721374,41.6655314 C43.0351014,41.575964 42.8754852,40.4284728 42.3327901,40.0650638 C42.4634527,38.9557489 41.8338967,38.3478649 41.6468117,38.3082202 C42.0647834,36.8259523 41.9927705,36.0264527 41.3305489,36.2195366 C41.4003346,35.1307781 41.3023376,33.8592139 40.7648393,34.0089825 C41.1278734,33.1639649 40.7284617,31.0341683 39.8019453,31.6604064 C39.9125631,30.489422 38.9897587,29.6385312 38.4789868,30.3631466 C38.8390513,29.2097821 37.5005024,28.3632962 37.2495709,28.2428941 C36.3230545,30.5525597 35.4039621,33.477451 34.6296379,36.3186481 C33.8538289,39.1598452 36.2799952,40.7324148 37.6801634,43.2395693 C39.0803316,45.747458 39.4507897,47.2003596 39.1946613,48.3522558" id="Fill-28" transform="translate(41.547825, 47.130890) scale(-1, 1) translate(-41.547825, -47.130890) "></path>
                            <path d="M124.542382,9.73179752 C124.542382,9.73179752 126.050199,9.07619313 124.443643,8.15996212 C124.983368,7.58584943 125.77848,5.68070563 123.212,5.98317933 C120.64552,6.28565303 118.247565,6.814982 116.107965,4.75639888 C113.222995,1.87188637 108.281574,1.6068548 107.778969,1.65971429 C107.778969,1.65971429 106.504266,1.68908066 104.820501,0.982819266 C103.136736,0.275823708 101.70019,0.416048165 100.836778,1.57895675 C99.6437393,1.76763573 98.128499,2.11709563 97.1270001,3.05535141 C99.4002318,2.94596166 101.645252,3.32111714 102.879865,4.52073369 C107.822771,9.32800982 118.476224,9.56220669 118.476224,9.56220669 C118.476224,9.56220669 122.294392,10.7618232 124.526049,11.6009675 C126.758449,12.4401118 124.542382,9.73179752 124.542382,9.73179752" id="Fill-48" transform="translate(111.324740, 6.157290) scale(-1, 1) translate(-111.324740, -6.157290) "></path>
                            <path d="M118.632619,4.52102736 C118.632619,4.52102736 116.66006,6.82995885 115.709787,12.0358836 C114.335603,17.9473355 113.355633,20.2680136 113.355633,20.2680136 C113.355633,20.2680136 117.44552,18.6660776 117.69274,17.0281679 C118.41955,17.2653014 119.28519,16.4702067 119.271827,14.9974828 C120.282977,14.7647543 121.075118,13.2883596 120.867989,12.7524232 C120.659374,12.2157526 122.527255,12.9660636 122.877668,9.12714379 C123.227339,5.28748983 120.188692,3.99463502 118.632619,4.52102736" id="Fill-50" transform="translate(118.130538, 12.338461) scale(-1, 1) translate(-118.130538, -12.338461) "></path>
                            <path d="M115.559276,15.7714337 C115.854009,15.5783498 116.22224,14.7773818 115.721119,13.912542 C116.100486,13.295848 116.309101,13.2187613 115.655046,12.3084036 C115.961657,11.8370732 116.302419,11.6542675 115.479097,10.7336315 C115.854752,9.76894599 115.52661,9.03845733 115.066322,8.52748235 C114.089322,4.29431892 112.170216,0.976652326 110.110053,1.17340706 C107.392123,1.43403367 105.537606,2.58592986 105.537606,2.58592986 L105.516818,2.86050549 C106.53465,3.99331354 108.00015,8.19637643 107.446319,13.097625 C106.891745,17.9988735 110.575539,25.5328179 113.639427,26.8616465 C113.962372,23.8075431 114.378116,21.5859766 114.754513,19.7902226 C115.409311,18.8255371 115.444946,18.5230634 115.205151,17.67878 C115.643167,17.3139027 116.001747,16.4784293 115.559276,15.7714337" id="Fill-52" transform="translate(110.797125, 14.013367) scale(-1, 1) translate(-110.797125, -14.013367) "></path>
                        </g>
                    </g>
                    <g id="Group-6" transform="translate(0.000000, 18.438095)">
                        <path d="M113.634914,4.64186653 C103.685887,9.47589456 96.222463,17.62332 90.7713498,26.8581796 C82.0094107,12.0284213 68.0787881,0 46.9826161,0 C25.8765148,0 0,18.0343013 0,48.4980082 C0,79.3404844 25.5631944,93.9591983 38.2239867,102.215478 C51.7574426,111.031581 74.8482742,127.060961 90.7713498,156.72381 C106.698838,127.060961 129.787463,111.031581 143.324229,102.215478 C152.835269,96.0085507 169.639834,86.2060927 177.398927,68.6205385 L113.634914,4.64186653 Z" id="Fill-1" fill="#4D90FE"></path>
                        <polygon id="Path" fill="#FFFFFF" points="112.66093 70.4 112.66093 12.5714286 169.832148 70.4"></polygon>
                    </g>
                </g>
                <path d="M322,236 L654,236 L492.352077,36.3745527 C490.405759,33.9709671 486.879465,33.6002785 484.475879,35.5465966 C484.17172,35.7928915 483.894218,36.0703934 483.647923,36.3745527 L322,236 Z" id="Path" fill="url(#linearGradient-6)"></path>
                <path d="M240,236 L434,236 L341.340654,122.325133 C339.386571,119.927855 335.859097,119.568576 333.46182,121.522659 C333.167844,121.762286 332.898973,122.031157 332.659346,122.325133 L240,236 Z" id="Path" fill="url(#linearGradient-7)"></path>
            </g>
        </g>
    </g>
</svg>