<?xml version="1.0" encoding="UTF-8"?>
<svg width="125px" height="32px" viewBox="0 0 125 32" version="1.1" xmlns="http://www.w3.org/2000/svg" xmlns:xlink="http://www.w3.org/1999/xlink">
    <!-- Generator: Sketch 52.6 (67491) - http://www.bohemiancoding.com/sketch -->
    <title>iloveimg</title>
    <desc>Created with Sketch.</desc>
    <g id="Plugin-WP-iLoveIMG" stroke="none" stroke-width="1" fill="none" fill-rule="evenodd">
        <g id="Home-Login" transform="translate(-72.000000, -32.000000)">
            <g id="iloveimg" transform="translate(72.000000, 32.000000)">
                <path d="M39.9751874,0.948000312 C37.9539619,1.93500925 36.4380989,3.59854568 35.3307838,5.48411377 C33.5509221,2.45618263 30.7211168,0 26.4357334,0 C22.1481089,0 16.8918919,3.68245958 16.8918919,9.90252096 C16.8918919,16.1999192 22.0846865,19.1847594 24.6565441,20.8705217 C27.4054465,22.6703615 32.0962404,25.9434573 35.3307838,32 C38.5662236,25.9434573 43.2563451,22.6703615 46.0059199,20.8705217 C47.9379506,19.603195 51.35178,17.601735 52.9279279,14.0111271 L39.9751874,0.948000312 Z" id="Path" fill="#4D90FE"></path>
                <polygon id="Path" fill="#FFFFFF" points="39.9774775 14.0350877 39.9774775 2.24561404 51.8018018 14.0350877"></polygon>
                <path d="M0,24.9864978 L1.47357224,24.9864978 C1.94078025,24.9864978 2.47993647,24.3369541 2.47993647,23.9036964 L2.47993647,8.20467524 C2.47993647,7.77141747 1.94078025,7.15799762 1.47357224,7.15799762 L0,7.15799762 L0,3.36842105 L11.8243243,3.36842105 L11.8243243,7.15799762 L10.3150057,7.15799762 C9.84756997,7.15799762 9.34461554,7.77141747 9.34461554,8.20467524 L9.34461554,23.9036964 C9.34461554,24.3369541 9.84756997,24.9864978 10.3150057,24.9864978 L11.8243243,24.9864978 L11.8243243,28.6315789 L0,28.6315789 L0,24.9864978 Z" id="Fill-6" fill="#000000"></path>
                <path d="M54.6171171,24.9865263 L56.090733,24.9865263 C56.557889,24.9865263 57.0969673,24.3367561 57.0969673,23.9038778 L57.0969673,8.2045682 C57.0969673,7.7714635 56.557889,7.15791738 56.090733,7.15791738 L54.6171171,7.15791738 L54.6171171,3.36842105 L66.4414414,3.36842105 L66.4414414,7.15791738 L64.9319772,7.15791738 C64.4648211,7.15791738 63.9615913,7.7714635 63.9615913,8.2045682 L63.9615913,23.9038778 C63.9615913,24.3367561 64.4648211,24.9865263 64.9319772,24.9865263 L66.4414414,24.9865263 L66.4414414,28.6315789 L54.6171171,28.6315789 L54.6171171,24.9865263 Z" id="Fill-8" fill="#000000"></path>
                <path d="M68.6936937,24.9865263 L69.9267362,24.9865263 C70.4342856,24.9865263 70.9784623,24.3367561 70.9784623,23.9038778 L70.9784623,8.2045682 C70.9784623,7.7714635 70.4342856,7.15791738 69.9267362,7.15791738 L68.6936937,7.15791738 L68.6936937,3.36842105 L80.7338304,3.36842105 L84.6866188,18.0210798 L84.7953632,18.0210798 L88.7847789,3.36842105 L100.788288,3.36842105 L100.788288,7.15791738 L99.5190735,7.15791738 C99.0476964,7.15791738 98.5037472,7.7714635 98.5037472,8.2045682 L98.5037472,23.9038778 C98.5037472,24.3367561 99.0476964,24.9865263 99.5190735,24.9865263 L100.788288,24.9865263 L100.788288,28.6315789 L89.4010726,28.6315789 L89.4010726,24.9865263 L91.6856137,24.9865263 L91.6856137,8.4932292 L91.5770969,8.4932292 L85.9558336,28.6315789 L81.6040126,28.6315789 L76.0553214,8.4932292 L75.9468045,8.4932292 L75.9468045,24.9865263 L78.34009,24.9865263 L78.34009,28.6315789 L68.6936937,28.6315789 L68.6936937,24.9865263 Z" id="Fill-10" fill="#000000"></path>
                <path d="M101.351351,15.8631378 C101.351351,7.48276247 106.109937,2.80701754 113.896859,2.80701754 C115.735208,2.80701754 117.213305,2.98684521 118.006403,3.13057196 L122.83713,3.13057196 L122.83713,11.4030958 L118.366881,11.4030958 L117.681882,7.73456633 C116.997108,7.48276247 115.915447,7.2668339 114.617815,7.2668339 C111.120904,7.2668339 108.633512,9.60481918 108.633512,15.5754587 C108.633512,21.2942943 110.327806,24.3513646 113.968773,24.3513646 C115.230674,24.3513646 115.915447,24.2435132 116.63663,24.0278102 L116.63663,19.6038691 L114.473534,19.6038691 L114.473534,15.935114 L125,15.935114 L125,19.6397444 L124.279043,19.6397444 C123.774283,19.6397444 123.269749,20.2870789 123.269749,20.7187104 L123.269749,28.3077989 L119.772837,28.3077989 C119.772837,28.3077989 119.448316,27.552613 118.763317,27.552613 C117.465685,28.1999474 115.735208,28.6315789 113.536154,28.6315789 C105.641361,28.6315789 101.351351,24.1356617 101.351351,15.8631378" id="Fill-12" fill="#000000"></path>
            </g>
        </g>
    </g>
</svg>